<svg width="1920" height="1080" viewBox="0 0 1920 1080" fill="none" xmlns="http://www.w3.org/2000/svg">
<path d="M584.21 599.33V566.92C584.21 565.567 584.093 564.563 583.86 563.91C583.627 563.21 583.137 562.743 582.39 562.51C581.69 562.23 580.64 562.09 579.24 562.09C579.1 562.09 579.03 561.95 579.03 561.67C579.03 561.39 579.1 561.25 579.24 561.25C580.453 561.25 581.807 561.297 583.3 561.39C584.793 561.437 586.38 561.46 588.06 561.46C589.833 561.46 591.467 561.437 592.96 561.39C594.453 561.297 595.783 561.25 596.95 561.25C597.09 561.25 597.16 561.39 597.16 561.67C597.16 561.95 597.09 562.09 596.95 562.09C595.55 562.09 594.5 562.23 593.8 562.51C593.1 562.79 592.61 563.28 592.33 563.98C592.097 564.68 591.98 565.707 591.98 567.06V599.33C591.98 600.683 592.097 601.71 592.33 602.41C592.563 603.11 593.03 603.577 593.73 603.81C594.43 604.043 595.503 604.16 596.95 604.16C597.137 604.16 597.23 604.3 597.23 604.58C597.23 604.86 597.137 605 596.95 605C595.737 605 594.383 604.977 592.89 604.93C591.443 604.883 589.833 604.86 588.06 604.86C586.38 604.86 584.77 604.883 583.23 604.93C581.69 604.977 580.313 605 579.1 605C579.007 605 578.96 604.86 578.96 604.58C578.96 604.3 579.007 604.16 579.1 604.16C580.547 604.16 581.62 604.043 582.32 603.81C583.067 603.577 583.557 603.11 583.79 602.41C584.07 601.71 584.21 600.683 584.21 599.33ZM602.69 594.85L593.1 581.9L598.7 576.51L609.41 590.93C611.23 593.497 612.77 595.62 614.03 597.3C615.29 598.933 616.34 600.24 617.18 601.22C618.067 602.153 618.837 602.83 619.49 603.25C620.143 603.67 620.773 603.927 621.38 604.02C622.033 604.113 622.733 604.16 623.48 604.16C623.62 604.16 623.69 604.3 623.69 604.58C623.69 604.86 623.62 605 623.48 605C621.427 605 619.77 605 618.51 605C617.25 605 616.293 605 615.64 605C614.473 605 613.563 605.023 612.91 605.07C612.257 605.163 611.673 605.117 611.16 604.93C610.693 604.743 610.133 604.323 609.48 603.67C608.873 603.017 608.033 601.99 606.96 600.59C605.933 599.19 604.51 597.277 602.69 594.85ZM587.08 586.94L605.14 568.46C606.867 566.733 607.497 565.24 607.03 563.98C606.61 562.72 605.233 562.09 602.9 562.09C602.76 562.09 602.69 561.95 602.69 561.67C602.69 561.39 602.76 561.25 602.9 561.25C604.16 561.25 605.443 561.297 606.75 561.39C608.057 561.437 609.783 561.46 611.93 561.46C614.17 561.46 615.943 561.437 617.25 561.39C618.557 561.297 619.817 561.25 621.03 561.25C621.17 561.25 621.24 561.39 621.24 561.67C621.24 561.95 621.17 562.09 621.03 562.09C618.883 562.09 616.527 562.72 613.96 563.98C611.393 565.193 609.06 566.827 606.96 568.88L588.97 587.15L587.08 586.94ZM646.028 605.84C642.668 605.84 639.612 605.257 636.858 604.09C634.152 602.877 631.818 601.22 629.858 599.12C627.945 597.02 626.452 594.617 625.378 591.91C624.352 589.157 623.838 586.24 623.838 583.16C623.838 579.38 624.562 576.067 626.008 573.22C627.502 570.373 629.462 568.017 631.888 566.15C634.315 564.237 636.975 562.813 639.868 561.88C642.762 560.947 645.632 560.48 648.478 560.48C651.932 560.48 655.012 561.11 657.718 562.37C660.472 563.583 662.805 565.24 664.718 567.34C666.632 569.44 668.078 571.82 669.058 574.48C670.085 577.14 670.598 579.87 670.598 582.67C670.598 585.937 669.945 588.97 668.638 591.77C667.332 594.57 665.535 597.02 663.248 599.12C661.008 601.22 658.395 602.877 655.408 604.09C652.468 605.257 649.342 605.84 646.028 605.84ZM648.338 604.09C650.952 604.09 653.285 603.343 655.338 601.85C657.392 600.357 659.002 598.163 660.168 595.27C661.382 592.377 661.988 588.853 661.988 584.7C661.988 580.407 661.335 576.58 660.028 573.22C658.722 569.86 656.855 567.223 654.428 565.31C652.002 563.35 649.085 562.37 645.678 562.37C641.432 562.37 638.165 563.98 635.878 567.2C633.592 570.42 632.448 574.877 632.448 580.57C632.448 583.977 632.845 587.127 633.638 590.02C634.432 592.867 635.528 595.363 636.928 597.51C638.375 599.61 640.055 601.243 641.968 602.41C643.928 603.53 646.052 604.09 648.338 604.09ZM687.56 562.86C684.713 562.86 682.286 563.817 680.28 565.73C678.32 567.597 676.756 570.257 675.59 573.71C675.543 573.85 675.403 573.92 675.17 573.92C674.936 573.873 674.82 573.78 674.82 573.64C674.913 572.987 675.006 572.077 675.1 570.91C675.193 569.697 675.286 568.39 675.38 566.99C675.52 565.59 675.613 564.237 675.66 562.93C675.753 561.623 675.8 560.55 675.8 559.71C675.8 559.477 675.916 559.36 676.15 559.36C676.43 559.36 676.57 559.477 676.57 559.71C676.57 560.177 676.803 560.527 677.27 560.76C677.783 560.947 678.343 561.087 678.95 561.18C679.603 561.227 680.14 561.25 680.56 561.25C684.573 561.39 689.263 561.46 694.63 561.46C697.896 561.46 700.51 561.437 702.47 561.39C704.43 561.297 706.32 561.25 708.14 561.25C709.82 561.25 711.08 561.157 711.92 560.97C712.806 560.737 713.366 560.247 713.6 559.5C713.646 559.313 713.786 559.22 714.02 559.22C714.3 559.22 714.44 559.313 714.44 559.5C714.346 560.247 714.253 561.297 714.16 562.65C714.113 563.957 714.043 565.357 713.95 566.85C713.903 568.297 713.856 569.65 713.81 570.91C713.763 572.123 713.74 573.033 713.74 573.64C713.74 573.78 713.623 573.85 713.39 573.85C713.156 573.85 713.016 573.78 712.97 573.64C712.27 569.953 710.94 567.247 708.98 565.52C707.066 563.747 704.733 562.86 701.98 562.86C701.046 562.86 700.323 563 699.81 563.28C699.343 563.513 699.016 563.933 698.83 564.54C698.69 565.147 698.62 565.987 698.62 567.06V599.33C698.62 600.683 698.76 601.71 699.04 602.41C699.32 603.11 699.856 603.577 700.65 603.81C701.49 604.043 702.75 604.16 704.43 604.16C704.57 604.16 704.64 604.3 704.64 604.58C704.64 604.86 704.57 605 704.43 605C703.123 605 701.653 604.977 700.02 604.93C698.386 604.883 696.59 604.86 694.63 604.86C692.763 604.86 691.013 604.883 689.38 604.93C687.746 604.977 686.253 605 684.9 605C684.76 605 684.69 604.86 684.69 604.58C684.69 604.3 684.76 604.16 684.9 604.16C686.533 604.16 687.77 604.043 688.61 603.81C689.45 603.577 690.01 603.11 690.29 602.41C690.616 601.71 690.78 600.683 690.78 599.33V566.92C690.78 565.893 690.686 565.1 690.5 564.54C690.36 563.933 690.056 563.513 689.59 563.28C689.123 563 688.446 562.86 687.56 562.86ZM750.81 605H719.87C719.73 605 719.66 604.86 719.66 604.58C719.66 604.3 719.73 604.16 719.87 604.16C721.317 604.16 722.39 604.043 723.09 603.81C723.79 603.577 724.257 603.11 724.49 602.41C724.723 601.71 724.84 600.683 724.84 599.33V566.92C724.84 565.567 724.723 564.563 724.49 563.91C724.257 563.21 723.79 562.743 723.09 562.51C722.39 562.23 721.317 562.09 719.87 562.09C719.73 562.09 719.66 561.95 719.66 561.67C719.66 561.39 719.73 561.25 719.87 561.25H749.55C750.017 561.25 750.25 561.46 750.25 561.88L750.39 571.19C750.39 571.283 750.273 571.353 750.04 571.4C749.807 571.447 749.643 571.4 749.55 571.26C748.803 568.507 747.543 566.5 745.77 565.24C743.997 563.933 741.663 563.28 738.77 563.28H736.67C735.737 563.28 734.967 563.42 734.36 563.7C733.753 563.933 733.31 564.33 733.03 564.89C732.75 565.45 732.61 566.15 732.61 566.99V599.05C732.61 599.937 732.727 600.683 732.96 601.29C733.193 601.897 733.543 602.34 734.01 602.62C734.477 602.9 735.083 603.04 735.83 603.04H738.14C741.78 603.04 744.697 602.293 746.89 600.8C749.083 599.307 750.693 596.997 751.72 593.87C751.767 593.73 751.907 593.707 752.14 593.8C752.42 593.847 752.56 593.917 752.56 594.01C752.373 595.363 752.21 596.973 752.07 598.84C751.93 600.66 751.86 602.363 751.86 603.95C751.86 604.65 751.51 605 750.81 605ZM746.89 589.39C746.89 587.477 746.167 585.983 744.72 584.91C743.273 583.79 741.15 583.23 738.35 583.23H728.9V581.27H738.42C741.173 581.27 743.25 580.803 744.65 579.87C746.097 578.89 746.82 577.583 746.82 575.95C746.82 575.81 746.937 575.74 747.17 575.74C747.45 575.74 747.59 575.81 747.59 575.95C747.59 577.49 747.567 578.703 747.52 579.59C747.52 580.43 747.52 581.317 747.52 582.25C747.52 583.417 747.543 584.56 747.59 585.68C747.683 586.8 747.73 588.037 747.73 589.39C747.73 589.483 747.59 589.53 747.31 589.53C747.03 589.53 746.89 589.483 746.89 589.39ZM770.533 566.99V599.05C770.533 600.17 770.626 601.033 770.813 601.64C771 602.2 771.373 602.573 771.933 602.76C772.54 602.947 773.403 603.04 774.523 603.04H776.903C780.543 603.04 783.693 602.06 786.353 600.1C789.013 598.14 790.786 595.527 791.673 592.26C791.72 592.12 791.86 592.073 792.093 592.12C792.326 592.167 792.443 592.26 792.443 592.4C792.303 593.94 792.163 595.807 792.023 598C791.883 600.147 791.813 602.13 791.813 603.95C791.813 604.65 791.463 605 790.763 605H757.723C757.63 605 757.583 604.86 757.583 604.58C757.583 604.3 757.63 604.16 757.723 604.16C759.17 604.16 760.243 604.043 760.943 603.81C761.643 603.577 762.11 603.11 762.343 602.41C762.623 601.71 762.763 600.683 762.763 599.33V566.92C762.763 565.567 762.623 564.563 762.343 563.91C762.11 563.21 761.643 562.743 760.943 562.51C760.243 562.23 759.17 562.09 757.723 562.09C757.63 562.09 757.583 561.95 757.583 561.67C757.583 561.39 757.63 561.25 757.723 561.25C758.843 561.25 760.173 561.297 761.713 561.39C763.3 561.437 764.933 561.46 766.613 561.46C768.386 561.46 770.02 561.437 771.513 561.39C773.006 561.297 774.336 561.25 775.503 561.25C775.643 561.25 775.713 561.39 775.713 561.67C775.713 561.95 775.643 562.09 775.503 562.09C774.103 562.09 773.03 562.23 772.283 562.51C771.583 562.743 771.116 563.21 770.883 563.91C770.65 564.61 770.533 565.637 770.533 566.99ZM802.658 596.11V562.86L804.758 563V596.11C804.758 598.583 805.271 600.543 806.298 601.99C807.324 603.437 808.748 604.16 810.568 604.16C810.661 604.16 810.708 604.3 810.708 604.58C810.708 604.86 810.661 605 810.568 605C809.541 605 808.468 604.977 807.348 604.93C806.274 604.883 805.084 604.86 803.778 604.86C802.378 604.86 801.001 604.883 799.648 604.93C798.341 604.977 797.128 605 796.008 605C795.868 605 795.798 604.86 795.798 604.58C795.798 604.3 795.868 604.16 796.008 604.16C798.061 604.16 799.671 603.437 800.838 601.99C802.051 600.543 802.658 598.583 802.658 596.11ZM838.358 606.05C838.358 606.19 838.241 606.26 838.008 606.26C837.821 606.307 837.681 606.307 837.588 606.26L803.078 566.99C801.398 565.077 799.974 563.793 798.808 563.14C797.641 562.44 796.474 562.09 795.308 562.09C795.214 562.09 795.168 561.95 795.168 561.67C795.168 561.39 795.214 561.25 795.308 561.25C796.241 561.25 797.198 561.273 798.178 561.32C799.158 561.367 800.068 561.39 800.908 561.39C802.588 561.39 804.104 561.367 805.458 561.32C806.811 561.273 807.861 561.25 808.608 561.25C809.214 561.25 809.658 561.53 809.938 562.09C810.264 562.603 810.988 563.537 812.108 564.89L837.798 594.5L838.358 606.05ZM838.358 570.21V606.05L836.328 603.95V570.21C836.328 567.737 835.814 565.777 834.788 564.33C833.761 562.837 832.338 562.09 830.518 562.09C830.424 562.09 830.378 561.95 830.378 561.67C830.378 561.39 830.424 561.25 830.518 561.25C831.544 561.25 832.594 561.297 833.668 561.39C834.788 561.437 836.001 561.46 837.308 561.46C838.568 561.46 839.804 561.437 841.018 561.39C842.231 561.297 843.351 561.25 844.378 561.25C844.471 561.25 844.518 561.39 844.518 561.67C844.518 561.95 844.471 562.09 844.378 562.09C842.511 562.09 841.041 562.837 839.968 564.33C838.894 565.777 838.358 567.737 838.358 570.21ZM861.132 599.33C861.132 600.683 861.249 601.71 861.482 602.41C861.716 603.11 862.182 603.577 862.882 603.81C863.582 604.043 864.656 604.16 866.102 604.16C866.242 604.16 866.312 604.3 866.312 604.58C866.312 604.86 866.242 605 866.102 605C864.889 605 863.536 604.977 862.042 604.93C860.549 604.883 858.916 604.86 857.142 604.86C855.462 604.86 853.852 604.883 852.312 604.93C850.772 604.977 849.396 605 848.182 605C848.089 605 848.042 604.86 848.042 604.58C848.042 604.3 848.089 604.16 848.182 604.16C849.629 604.16 850.702 604.043 851.402 603.81C852.149 603.577 852.639 603.11 852.872 602.41C853.152 601.71 853.292 600.683 853.292 599.33V566.92C853.292 565.567 853.152 564.563 852.872 563.91C852.639 563.21 852.149 562.743 851.402 562.51C850.702 562.23 849.629 562.09 848.182 562.09C848.089 562.09 848.042 561.95 848.042 561.67C848.042 561.39 848.089 561.25 848.182 561.25C849.396 561.25 850.772 561.297 852.312 561.39C853.852 561.437 855.462 561.46 857.142 561.46C858.916 561.46 860.549 561.437 862.042 561.39C863.582 561.297 864.936 561.25 866.102 561.25C866.242 561.25 866.312 561.39 866.312 561.67C866.312 561.95 866.242 562.09 866.102 562.09C864.702 562.09 863.629 562.23 862.882 562.51C862.182 562.79 861.716 563.28 861.482 563.98C861.249 564.68 861.132 565.707 861.132 567.06V599.33ZM876.378 599.33V566.92C876.378 565.567 876.261 564.563 876.028 563.91C875.795 563.21 875.305 562.743 874.558 562.51C873.858 562.23 872.808 562.09 871.408 562.09C871.268 562.09 871.198 561.95 871.198 561.67C871.198 561.39 871.268 561.25 871.408 561.25C872.621 561.25 873.975 561.297 875.468 561.39C876.961 561.437 878.548 561.46 880.228 561.46C882.001 561.46 883.635 561.437 885.128 561.39C886.621 561.297 887.951 561.25 889.118 561.25C889.258 561.25 889.328 561.39 889.328 561.67C889.328 561.95 889.258 562.09 889.118 562.09C887.718 562.09 886.668 562.23 885.968 562.51C885.268 562.79 884.778 563.28 884.498 563.98C884.265 564.68 884.148 565.707 884.148 567.06V599.33C884.148 600.683 884.265 601.71 884.498 602.41C884.731 603.11 885.198 603.577 885.898 603.81C886.598 604.043 887.671 604.16 889.118 604.16C889.305 604.16 889.398 604.3 889.398 604.58C889.398 604.86 889.305 605 889.118 605C887.905 605 886.551 604.977 885.058 604.93C883.611 604.883 882.001 604.86 880.228 604.86C878.548 604.86 876.938 604.883 875.398 604.93C873.858 604.977 872.481 605 871.268 605C871.175 605 871.128 604.86 871.128 604.58C871.128 604.3 871.175 604.16 871.268 604.16C872.715 604.16 873.788 604.043 874.488 603.81C875.235 603.577 875.725 603.11 875.958 602.41C876.238 601.71 876.378 600.683 876.378 599.33ZM894.858 594.85L885.268 581.9L890.868 576.51L901.578 590.93C903.398 593.497 904.938 595.62 906.198 597.3C907.458 598.933 908.508 600.24 909.348 601.22C910.235 602.153 911.005 602.83 911.658 603.25C912.311 603.67 912.941 603.927 913.548 604.02C914.201 604.113 914.901 604.16 915.648 604.16C915.788 604.16 915.858 604.3 915.858 604.58C915.858 604.86 915.788 605 915.648 605C913.595 605 911.938 605 910.678 605C909.418 605 908.461 605 907.808 605C906.641 605 905.731 605.023 905.078 605.07C904.425 605.163 903.841 605.117 903.328 604.93C902.861 604.743 902.301 604.323 901.648 603.67C901.041 603.017 900.201 601.99 899.128 600.59C898.101 599.19 896.678 597.277 894.858 594.85ZM879.248 586.94L897.308 568.46C899.035 566.733 899.665 565.24 899.198 563.98C898.778 562.72 897.401 562.09 895.068 562.09C894.928 562.09 894.858 561.95 894.858 561.67C894.858 561.39 894.928 561.25 895.068 561.25C896.328 561.25 897.611 561.297 898.918 561.39C900.225 561.437 901.951 561.46 904.098 561.46C906.338 561.46 908.111 561.437 909.418 561.39C910.725 561.297 911.985 561.25 913.198 561.25C913.338 561.25 913.408 561.39 913.408 561.67C913.408 561.95 913.338 562.09 913.198 562.09C911.051 562.09 908.695 562.72 906.128 563.98C903.561 565.193 901.228 566.827 899.128 568.88L881.138 587.15L879.248 586.94ZM938.196 605.84C934.836 605.84 931.78 605.257 929.026 604.09C926.32 602.877 923.986 601.22 922.026 599.12C920.113 597.02 918.62 594.617 917.546 591.91C916.52 589.157 916.006 586.24 916.006 583.16C916.006 579.38 916.73 576.067 918.176 573.22C919.67 570.373 921.63 568.017 924.056 566.15C926.483 564.237 929.143 562.813 932.036 561.88C934.93 560.947 937.8 560.48 940.646 560.48C944.1 560.48 947.18 561.11 949.886 562.37C952.64 563.583 954.973 565.24 956.886 567.34C958.8 569.44 960.246 571.82 961.226 574.48C962.253 577.14 962.766 579.87 962.766 582.67C962.766 585.937 962.113 588.97 960.806 591.77C959.5 594.57 957.703 597.02 955.416 599.12C953.176 601.22 950.563 602.877 947.576 604.09C944.636 605.257 941.51 605.84 938.196 605.84ZM940.506 604.09C943.12 604.09 945.453 603.343 947.506 601.85C949.56 600.357 951.17 598.163 952.336 595.27C953.55 592.377 954.156 588.853 954.156 584.7C954.156 580.407 953.503 576.58 952.196 573.22C950.89 569.86 949.023 567.223 946.596 565.31C944.17 563.35 941.253 562.37 937.846 562.37C933.6 562.37 930.333 563.98 928.046 567.2C925.76 570.42 924.616 574.877 924.616 580.57C924.616 583.977 925.013 587.127 925.806 590.02C926.6 592.867 927.696 595.363 929.096 597.51C930.543 599.61 932.223 601.243 934.136 602.41C936.096 603.53 938.22 604.09 940.506 604.09ZM1011.08 561.25C1011.22 561.25 1011.29 561.39 1011.29 561.67C1011.29 561.95 1011.22 562.09 1011.08 562.09C1009.35 562.09 1007.72 562.837 1006.18 564.33C1004.69 565.823 1003.47 567.83 1002.54 570.35L989.589 604.93C989.543 605.117 989.286 605.21 988.819 605.21C988.399 605.21 988.143 605.117 988.049 604.93L970.199 567.06C969.406 565.427 968.589 564.19 967.749 563.35C966.909 562.51 965.953 562.09 964.879 562.09C964.739 562.09 964.669 561.95 964.669 561.67C964.669 561.39 964.739 561.25 964.879 561.25C965.439 561.25 965.859 561.273 966.139 561.32C966.466 561.367 966.886 561.413 967.399 561.46C967.959 561.46 968.823 561.46 969.989 561.46C972.603 561.46 974.726 561.46 976.359 561.46C977.993 561.413 979.323 561.367 980.349 561.32C981.376 561.273 982.263 561.25 983.009 561.25C983.149 561.25 983.219 561.39 983.219 561.67C983.219 561.95 983.149 562.09 983.009 562.09C981.003 562.09 979.673 562.65 979.019 563.77C978.366 564.89 978.483 566.407 979.369 568.32L992.109 595.48L988.819 601.22L1000.58 570.14C1001.42 567.853 1001.47 565.94 1000.72 564.4C1000.02 562.86 998.526 562.09 996.239 562.09C996.099 562.09 996.029 561.95 996.029 561.67C996.029 561.39 996.099 561.25 996.239 561.25C997.593 561.25 998.876 561.297 1000.09 561.39C1001.3 561.437 1002.91 561.46 1004.92 561.46C1006.23 561.46 1007.28 561.437 1008.07 561.39C1008.91 561.297 1009.91 561.25 1011.08 561.25ZM1019.1 584.07L1020.15 582.11H1034.57L1035.06 584.07H1019.1ZM1054.03 604.16C1054.26 604.16 1054.38 604.3 1054.38 604.58C1054.38 604.86 1054.26 605 1054.03 605C1052.63 605 1051.16 604.953 1049.62 604.86C1048.12 604.767 1046.68 604.72 1045.28 604.72C1043.69 604.72 1042.31 604.767 1041.15 604.86C1039.98 604.953 1038.67 605 1037.23 605C1037.04 605 1036.95 604.86 1036.95 604.58C1036.95 604.3 1037.04 604.16 1037.23 604.16C1039.14 604.16 1040.24 603.787 1040.52 603.04C1040.84 602.247 1040.42 600.707 1039.26 598.42L1025.05 570.35L1028.48 564.33L1014.55 595.06C1013.29 597.86 1013.26 600.077 1014.48 601.71C1015.69 603.343 1017.6 604.16 1020.22 604.16C1020.45 604.16 1020.57 604.3 1020.57 604.58C1020.57 604.86 1020.45 605 1020.22 605C1018.82 605 1017.53 604.953 1016.37 604.86C1015.2 604.767 1013.73 604.72 1011.96 604.72C1010.14 604.72 1008.67 604.767 1007.55 604.86C1006.47 604.953 1005.14 605 1003.56 605C1003.37 605 1003.28 604.86 1003.28 604.58C1003.28 604.3 1003.37 604.16 1003.56 604.16C1004.82 604.16 1005.89 603.903 1006.78 603.39C1007.71 602.83 1008.62 601.85 1009.51 600.45C1010.44 599.003 1011.49 596.973 1012.66 594.36L1027.85 560.97C1027.89 560.83 1028.1 560.76 1028.48 560.76C1028.85 560.713 1029.06 560.783 1029.11 560.97L1046.61 595.41C1047.73 597.603 1048.68 599.353 1049.48 600.66C1050.32 601.92 1051.09 602.83 1051.79 603.39C1052.53 603.903 1053.28 604.16 1054.03 604.16ZM1091.04 605C1090.34 605 1089.2 604.09 1087.61 602.27C1086.07 600.45 1084.21 597.837 1082.01 594.43C1079.82 590.977 1077.35 586.87 1074.59 582.11L1081.03 580.08C1084.77 585.96 1087.94 590.673 1090.55 594.22C1093.21 597.72 1095.57 600.263 1097.62 601.85C1099.68 603.39 1101.64 604.16 1103.5 604.16C1103.6 604.16 1103.64 604.3 1103.64 604.58C1103.64 604.86 1103.6 605 1103.5 605C1100.24 605 1097.58 605 1095.52 605C1093.47 605 1091.98 605 1091.04 605ZM1075.08 561.04C1079.38 561.04 1082.69 561.833 1085.02 563.42C1087.4 564.96 1088.59 567.13 1088.59 569.93C1088.59 571.703 1088.15 573.383 1087.26 574.97C1086.42 576.557 1085.28 577.98 1083.83 579.24C1082.43 580.453 1080.82 581.41 1079 582.11C1077.23 582.81 1075.41 583.16 1073.54 583.16C1072.89 583.16 1072.21 583.16 1071.51 583.16C1070.86 583.16 1070.25 583.137 1069.69 583.09V599.33C1069.69 600.683 1069.81 601.71 1070.04 602.41C1070.28 603.11 1070.74 603.577 1071.44 603.81C1072.14 604.043 1073.22 604.16 1074.66 604.16C1074.76 604.16 1074.8 604.3 1074.8 604.58C1074.8 604.86 1074.76 605 1074.66 605C1073.45 605 1072.1 604.977 1070.6 604.93C1069.11 604.883 1067.48 604.86 1065.7 604.86C1064.02 604.86 1062.41 604.883 1060.87 604.93C1059.38 604.977 1058.03 605 1056.81 605C1056.67 605 1056.6 604.86 1056.6 604.58C1056.6 604.3 1056.67 604.16 1056.81 604.16C1058.26 604.16 1059.33 604.043 1060.03 603.81C1060.73 603.577 1061.2 603.11 1061.43 602.41C1061.71 601.71 1061.85 600.683 1061.85 599.33V566.92C1061.85 565.567 1061.74 564.563 1061.5 563.91C1061.27 563.21 1060.8 562.743 1060.1 562.51C1059.4 562.23 1058.33 562.09 1056.88 562.09C1056.79 562.09 1056.74 561.95 1056.74 561.67C1056.74 561.39 1056.79 561.25 1056.88 561.25C1058.1 561.25 1059.45 561.297 1060.94 561.39C1062.44 561.437 1064.02 561.46 1065.7 561.46C1067.1 561.46 1068.62 561.39 1070.25 561.25C1071.93 561.11 1073.54 561.04 1075.08 561.04ZM1080.54 572.59C1080.54 569.837 1080.26 567.737 1079.7 566.29C1079.14 564.843 1078.37 563.863 1077.39 563.35C1076.41 562.79 1075.29 562.51 1074.03 562.51C1072.96 562.51 1072.1 562.673 1071.44 563C1070.84 563.28 1070.39 563.77 1070.11 564.47C1069.83 565.123 1069.69 565.987 1069.69 567.06V581.06C1070.35 581.153 1071.05 581.223 1071.79 581.27C1072.54 581.317 1073.19 581.34 1073.75 581.34C1076.23 581.34 1077.98 580.733 1079 579.52C1080.03 578.307 1080.54 575.997 1080.54 572.59ZM1112.62 562.86C1109.77 562.86 1107.34 563.817 1105.34 565.73C1103.38 567.597 1101.81 570.257 1100.65 573.71C1100.6 573.85 1100.46 573.92 1100.23 573.92C1099.99 573.873 1099.88 573.78 1099.88 573.64C1099.97 572.987 1100.06 572.077 1100.16 570.91C1100.25 569.697 1100.34 568.39 1100.44 566.99C1100.58 565.59 1100.67 564.237 1100.72 562.93C1100.81 561.623 1100.86 560.55 1100.86 559.71C1100.86 559.477 1100.97 559.36 1101.21 559.36C1101.49 559.36 1101.63 559.477 1101.63 559.71C1101.63 560.177 1101.86 560.527 1102.33 560.76C1102.84 560.947 1103.4 561.087 1104.01 561.18C1104.66 561.227 1105.2 561.25 1105.62 561.25C1109.63 561.39 1114.32 561.46 1119.69 561.46C1122.95 561.46 1125.57 561.437 1127.53 561.39C1129.49 561.297 1131.38 561.25 1133.2 561.25C1134.88 561.25 1136.14 561.157 1136.98 560.97C1137.86 560.737 1138.42 560.247 1138.66 559.5C1138.7 559.313 1138.84 559.22 1139.08 559.22C1139.36 559.22 1139.5 559.313 1139.5 559.5C1139.4 560.247 1139.31 561.297 1139.22 562.65C1139.17 563.957 1139.1 565.357 1139.01 566.85C1138.96 568.297 1138.91 569.65 1138.87 570.91C1138.82 572.123 1138.8 573.033 1138.8 573.64C1138.8 573.78 1138.68 573.85 1138.45 573.85C1138.21 573.85 1138.07 573.78 1138.03 573.64C1137.33 569.953 1136 567.247 1134.04 565.52C1132.12 563.747 1129.79 562.86 1127.04 562.86C1126.1 562.86 1125.38 563 1124.87 563.28C1124.4 563.513 1124.07 563.933 1123.89 564.54C1123.75 565.147 1123.68 565.987 1123.68 567.06V599.33C1123.68 600.683 1123.82 601.71 1124.1 602.41C1124.38 603.11 1124.91 603.577 1125.71 603.81C1126.55 604.043 1127.81 604.16 1129.49 604.16C1129.63 604.16 1129.7 604.3 1129.7 604.58C1129.7 604.86 1129.63 605 1129.49 605C1128.18 605 1126.71 604.977 1125.08 604.93C1123.44 604.883 1121.65 604.86 1119.69 604.86C1117.82 604.86 1116.07 604.883 1114.44 604.93C1112.8 604.977 1111.31 605 1109.96 605C1109.82 605 1109.75 604.86 1109.75 604.58C1109.75 604.3 1109.82 604.16 1109.96 604.16C1111.59 604.16 1112.83 604.043 1113.67 603.81C1114.51 603.577 1115.07 603.11 1115.35 602.41C1115.67 601.71 1115.84 600.683 1115.84 599.33V566.92C1115.84 565.893 1115.74 565.1 1115.56 564.54C1115.42 563.933 1115.11 563.513 1114.65 563.28C1114.18 563 1113.5 562.86 1112.62 562.86ZM1157.95 599.33C1157.95 600.683 1158.07 601.71 1158.3 602.41C1158.53 603.11 1159 603.577 1159.7 603.81C1160.4 604.043 1161.47 604.16 1162.92 604.16C1163.06 604.16 1163.13 604.3 1163.13 604.58C1163.13 604.86 1163.06 605 1162.92 605C1161.71 605 1160.35 604.977 1158.86 604.93C1157.37 604.883 1155.73 604.86 1153.96 604.86C1152.28 604.86 1150.67 604.883 1149.13 604.93C1147.59 604.977 1146.21 605 1145 605C1144.91 605 1144.86 604.86 1144.86 604.58C1144.86 604.3 1144.91 604.16 1145 604.16C1146.45 604.16 1147.52 604.043 1148.22 603.81C1148.97 603.577 1149.46 603.11 1149.69 602.41C1149.97 601.71 1150.11 600.683 1150.11 599.33V566.92C1150.11 565.567 1149.97 564.563 1149.69 563.91C1149.46 563.21 1148.97 562.743 1148.22 562.51C1147.52 562.23 1146.45 562.09 1145 562.09C1144.91 562.09 1144.86 561.95 1144.86 561.67C1144.86 561.39 1144.91 561.25 1145 561.25C1146.21 561.25 1147.59 561.297 1149.13 561.39C1150.67 561.437 1152.28 561.46 1153.96 561.46C1155.73 561.46 1157.37 561.437 1158.86 561.39C1160.4 561.297 1161.75 561.25 1162.92 561.25C1163.06 561.25 1163.13 561.39 1163.13 561.67C1163.13 561.95 1163.06 562.09 1162.92 562.09C1161.52 562.09 1160.45 562.23 1159.7 562.51C1159 562.79 1158.53 563.28 1158.3 563.98C1158.07 564.68 1157.95 565.707 1157.95 567.06V599.33ZM1168.36 605C1168.22 605 1168.15 604.86 1168.15 604.58C1168.15 604.3 1168.22 604.16 1168.36 604.16C1169.95 604.16 1171.12 604.043 1171.86 603.81C1172.66 603.577 1173.17 603.11 1173.4 602.41C1173.68 601.71 1173.82 600.683 1173.82 599.33V566.92C1173.82 565.567 1173.71 564.563 1173.47 563.91C1173.24 563.21 1172.77 562.743 1172.07 562.51C1171.37 562.23 1170.3 562.09 1168.85 562.09C1168.71 562.09 1168.64 561.95 1168.64 561.67C1168.64 561.39 1168.71 561.25 1168.85 561.25H1198.53C1199 561.25 1199.23 561.46 1199.23 561.88L1199.37 571.19C1199.37 571.283 1199.26 571.353 1199.02 571.4C1198.79 571.447 1198.63 571.4 1198.53 571.26C1197.79 568.507 1196.53 566.5 1194.75 565.24C1192.98 563.933 1190.65 563.28 1187.75 563.28H1185.65C1184.25 563.28 1183.23 563.583 1182.57 564.19C1181.92 564.797 1181.59 565.73 1181.59 566.99V599.05C1181.59 600.45 1181.78 601.523 1182.15 602.27C1182.53 602.97 1183.25 603.46 1184.32 603.74C1185.4 604.02 1186.98 604.16 1189.08 604.16C1189.18 604.16 1189.22 604.3 1189.22 604.58C1189.22 604.86 1189.18 605 1189.08 605C1187.5 605 1185.77 604.977 1183.9 604.93C1182.08 604.883 1179.94 604.86 1177.46 604.86C1175.78 604.86 1174.15 604.883 1172.56 604.93C1170.98 604.977 1169.58 605 1168.36 605ZM1195.03 590.16C1195.03 588.293 1194.31 586.823 1192.86 585.75C1191.42 584.63 1189.32 584.07 1186.56 584.07H1177.88V582.11H1186.63C1189.39 582.11 1191.46 581.62 1192.86 580.64C1194.26 579.66 1194.96 578.353 1194.96 576.72C1194.96 576.627 1195.1 576.58 1195.38 576.58C1195.66 576.58 1195.8 576.627 1195.8 576.72C1195.8 578.307 1195.78 579.543 1195.73 580.43C1195.73 581.27 1195.73 582.157 1195.73 583.09C1195.73 584.257 1195.76 585.4 1195.8 586.52C1195.85 587.64 1195.87 588.853 1195.87 590.16C1195.87 590.3 1195.73 590.37 1195.45 590.37C1195.17 590.37 1195.03 590.3 1195.03 590.16ZM1216.18 584.07L1217.23 582.11H1231.65L1232.14 584.07H1216.18ZM1251.11 604.16C1251.34 604.16 1251.46 604.3 1251.46 604.58C1251.46 604.86 1251.34 605 1251.11 605C1249.71 605 1248.24 604.953 1246.7 604.86C1245.2 604.767 1243.76 604.72 1242.36 604.72C1240.77 604.72 1239.39 604.767 1238.23 604.86C1237.06 604.953 1235.75 605 1234.31 605C1234.12 605 1234.03 604.86 1234.03 604.58C1234.03 604.3 1234.12 604.16 1234.31 604.16C1236.22 604.16 1237.32 603.787 1237.6 603.04C1237.92 602.247 1237.5 600.707 1236.34 598.42L1222.13 570.35L1225.56 564.33L1211.63 595.06C1210.37 597.86 1210.34 600.077 1211.56 601.71C1212.77 603.343 1214.68 604.16 1217.3 604.16C1217.53 604.16 1217.65 604.3 1217.65 604.58C1217.65 604.86 1217.53 605 1217.3 605C1215.9 605 1214.61 604.953 1213.45 604.86C1212.28 604.767 1210.81 604.72 1209.04 604.72C1207.22 604.72 1205.75 604.767 1204.63 604.86C1203.55 604.953 1202.22 605 1200.64 605C1200.45 605 1200.36 604.86 1200.36 604.58C1200.36 604.3 1200.45 604.16 1200.64 604.16C1201.9 604.16 1202.97 603.903 1203.86 603.39C1204.79 602.83 1205.7 601.85 1206.59 600.45C1207.52 599.003 1208.57 596.973 1209.74 594.36L1224.93 560.97C1224.97 560.83 1225.18 560.76 1225.56 560.76C1225.93 560.713 1226.14 560.783 1226.19 560.97L1243.69 595.41C1244.81 597.603 1245.76 599.353 1246.56 600.66C1247.4 601.92 1248.17 602.83 1248.87 603.39C1249.61 603.903 1250.36 604.16 1251.11 604.16ZM1279.67 560.48C1281.63 560.48 1283.73 560.643 1285.97 560.97C1288.26 561.297 1290.06 561.763 1291.36 562.37C1291.78 562.51 1292.06 562.697 1292.2 562.93C1292.34 563.117 1292.44 563.467 1292.48 563.98L1293.32 573.71C1293.32 573.85 1293.21 573.943 1292.97 573.99C1292.79 574.037 1292.65 573.967 1292.55 573.78C1291.01 570.187 1288.91 567.363 1286.25 565.31C1283.64 563.257 1280.54 562.23 1276.94 562.23C1273.82 562.23 1271.16 563.023 1268.96 564.61C1266.82 566.197 1265.18 568.413 1264.06 571.26C1262.99 574.06 1262.45 577.327 1262.45 581.06C1262.45 584.28 1262.85 587.313 1263.64 590.16C1264.44 592.96 1265.56 595.433 1267 597.58C1268.45 599.68 1270.18 601.337 1272.18 602.55C1274.19 603.763 1276.41 604.37 1278.83 604.37C1281.82 604.37 1284.48 603.39 1286.81 601.43C1289.19 599.47 1291.32 596.437 1293.18 592.33C1293.28 592.143 1293.44 592.073 1293.67 592.12C1293.91 592.167 1294.02 592.26 1294.02 592.4L1292.97 601.92C1292.88 602.48 1292.76 602.853 1292.62 603.04C1292.53 603.18 1292.27 603.343 1291.85 603.53C1289.71 604.323 1287.54 604.907 1285.34 605.28C1283.2 605.653 1281.1 605.84 1279.04 605.84C1274.52 605.84 1270.64 605.163 1267.42 603.81C1264.2 602.41 1261.57 600.59 1259.51 598.35C1257.51 596.063 1256.01 593.59 1255.03 590.93C1254.1 588.223 1253.63 585.563 1253.63 582.95C1253.63 579.497 1254.33 576.393 1255.73 573.64C1257.18 570.887 1259.12 568.53 1261.54 566.57C1264.02 564.61 1266.79 563.117 1269.87 562.09C1273 561.017 1276.27 560.48 1279.67 560.48ZM1312.57 562.86C1309.72 562.86 1307.3 563.817 1305.29 565.73C1303.33 567.597 1301.77 570.257 1300.6 573.71C1300.55 573.85 1300.41 573.92 1300.18 573.92C1299.95 573.873 1299.83 573.78 1299.83 573.64C1299.92 572.987 1300.02 572.077 1300.11 570.91C1300.2 569.697 1300.3 568.39 1300.39 566.99C1300.53 565.59 1300.62 564.237 1300.67 562.93C1300.76 561.623 1300.81 560.55 1300.81 559.71C1300.81 559.477 1300.93 559.36 1301.16 559.36C1301.44 559.36 1301.58 559.477 1301.58 559.71C1301.58 560.177 1301.81 560.527 1302.28 560.76C1302.79 560.947 1303.35 561.087 1303.96 561.18C1304.61 561.227 1305.15 561.25 1305.57 561.25C1309.58 561.39 1314.27 561.46 1319.64 561.46C1322.91 561.46 1325.52 561.437 1327.48 561.39C1329.44 561.297 1331.33 561.25 1333.15 561.25C1334.83 561.25 1336.09 561.157 1336.93 560.97C1337.82 560.737 1338.38 560.247 1338.61 559.5C1338.66 559.313 1338.8 559.22 1339.03 559.22C1339.31 559.22 1339.45 559.313 1339.45 559.5C1339.36 560.247 1339.26 561.297 1339.17 562.65C1339.12 563.957 1339.05 565.357 1338.96 566.85C1338.91 568.297 1338.87 569.65 1338.82 570.91C1338.77 572.123 1338.75 573.033 1338.75 573.64C1338.75 573.78 1338.63 573.85 1338.4 573.85C1338.17 573.85 1338.03 573.78 1337.98 573.64C1337.28 569.953 1335.95 567.247 1333.99 565.52C1332.08 563.747 1329.74 562.86 1326.99 562.86C1326.06 562.86 1325.33 563 1324.82 563.28C1324.35 563.513 1324.03 563.933 1323.84 564.54C1323.7 565.147 1323.63 565.987 1323.63 567.06V599.33C1323.63 600.683 1323.77 601.71 1324.05 602.41C1324.33 603.11 1324.87 603.577 1325.66 603.81C1326.5 604.043 1327.76 604.16 1329.44 604.16C1329.58 604.16 1329.65 604.3 1329.65 604.58C1329.65 604.86 1329.58 605 1329.44 605C1328.13 605 1326.66 604.977 1325.03 604.93C1323.4 604.883 1321.6 604.86 1319.64 604.86C1317.77 604.86 1316.02 604.883 1314.39 604.93C1312.76 604.977 1311.26 605 1309.91 605C1309.77 605 1309.7 604.86 1309.7 604.58C1309.7 604.3 1309.77 604.16 1309.91 604.16C1311.54 604.16 1312.78 604.043 1313.62 603.81C1314.46 603.577 1315.02 603.11 1315.3 602.41C1315.63 601.71 1315.79 600.683 1315.79 599.33V566.92C1315.79 565.893 1315.7 565.1 1315.51 564.54C1315.37 563.933 1315.07 563.513 1314.6 563.28C1314.13 563 1313.46 562.86 1312.57 562.86Z" fill="#475569"/>
<path d="M737.436 672L732.72 648.42H736.572L738.804 660.768C739.02 662.04 739.224 663.312 739.416 664.584C739.608 665.832 739.788 667.14 739.956 668.508H740.1C740.316 667.14 740.556 665.832 740.82 664.584C741.084 663.312 741.348 662.04 741.612 660.768L744.564 648.42H748.164L751.044 660.768C751.308 662.016 751.572 663.276 751.836 664.548C752.124 665.82 752.388 667.14 752.628 668.508H752.772C752.94 667.14 753.12 665.832 753.312 664.584C753.504 663.312 753.696 662.04 753.888 660.768L756.156 648.42H759.828L755.076 672H750.36L747.336 658.716C747.168 657.852 747 656.964 746.832 656.052C746.664 655.14 746.508 654.156 746.364 653.1H746.22C746.1 654.156 745.956 655.14 745.788 656.052C745.62 656.964 745.44 657.852 745.248 658.716L742.152 672H737.436ZM770.699 672.432C769.067 672.432 767.603 672.072 766.307 671.352C765.011 670.608 763.979 669.552 763.211 668.184C762.467 666.816 762.095 665.16 762.095 663.216C762.095 661.296 762.479 659.652 763.247 658.284C764.015 656.892 765.011 655.824 766.235 655.08C767.459 654.336 768.755 653.964 770.123 653.964C771.683 653.964 772.991 654.324 774.047 655.044C775.103 655.74 775.895 656.712 776.423 657.96C776.975 659.184 777.251 660.624 777.251 662.28C777.251 662.616 777.239 662.952 777.215 663.288C777.191 663.624 777.143 663.948 777.071 664.26H764.687V661.488H774.083C774.083 660 773.759 658.86 773.111 658.068C772.463 657.252 771.491 656.844 770.195 656.844C769.451 656.844 768.731 657.048 768.035 657.456C767.339 657.84 766.763 658.5 766.307 659.436C765.851 660.348 765.623 661.596 765.623 663.18C765.623 664.62 765.875 665.808 766.379 666.744C766.883 667.68 767.555 668.388 768.395 668.868C769.235 669.324 770.135 669.552 771.095 669.552C771.911 669.552 772.667 669.444 773.363 669.228C774.083 668.988 774.743 668.676 775.343 668.292L776.603 670.596C775.811 671.148 774.911 671.592 773.903 671.928C772.919 672.264 771.851 672.432 770.699 672.432ZM784.954 672.36C784.09 672.36 783.394 672.18 782.866 671.82C782.338 671.46 781.954 670.956 781.714 670.308C781.474 669.636 781.354 668.832 781.354 667.896V646.476H784.918V668.112C784.918 668.616 785.002 668.964 785.17 669.156C785.362 669.324 785.578 669.408 785.818 669.408C785.914 669.408 785.998 669.408 786.07 669.408C786.166 669.384 786.286 669.36 786.43 669.336L786.934 672C786.694 672.096 786.406 672.18 786.07 672.252C785.758 672.324 785.386 672.36 784.954 672.36ZM798.047 672.432C796.439 672.432 794.999 672.072 793.727 671.352C792.455 670.608 791.447 669.552 790.703 668.184C789.959 666.816 789.587 665.16 789.587 663.216C789.587 661.272 789.983 659.616 790.775 658.248C791.591 656.856 792.659 655.8 793.979 655.08C795.299 654.336 796.715 653.964 798.227 653.964C799.379 653.964 800.375 654.156 801.215 654.54C802.055 654.924 802.787 655.404 803.411 655.98L801.683 658.212C801.275 657.828 800.795 657.516 800.243 657.276C799.715 657.036 799.103 656.916 798.407 656.916C797.423 656.916 796.547 657.18 795.779 657.708C795.011 658.236 794.399 658.968 793.943 659.904C793.487 660.84 793.259 661.944 793.259 663.216C793.259 664.488 793.475 665.592 793.907 666.528C794.339 667.464 794.939 668.196 795.707 668.724C796.475 669.252 797.363 669.516 798.371 669.516C799.115 669.516 799.811 669.372 800.459 669.084C801.107 668.796 801.683 668.424 802.187 667.968L803.699 670.164C802.955 670.86 802.103 671.412 801.143 671.82C800.183 672.228 799.151 672.432 798.047 672.432ZM813.582 672.432C812.118 672.432 810.762 672.072 809.514 671.352C808.266 670.632 807.246 669.588 806.454 668.22C805.686 666.828 805.302 665.16 805.302 663.216C805.302 661.272 805.686 659.616 806.454 658.248C807.246 656.856 808.266 655.8 809.514 655.08C810.762 654.336 812.118 653.964 813.582 653.964C815.022 653.964 816.366 654.336 817.614 655.08C818.862 655.8 819.87 656.856 820.638 658.248C821.43 659.616 821.826 661.272 821.826 663.216C821.826 665.16 821.43 666.828 820.638 668.22C819.87 669.588 818.862 670.632 817.614 671.352C816.366 672.072 815.022 672.432 813.582 672.432ZM813.582 669.516C814.518 669.516 815.322 669.252 815.994 668.724C816.69 668.196 817.218 667.464 817.578 666.528C817.962 665.592 818.154 664.488 818.154 663.216C818.154 661.968 817.962 660.876 817.578 659.94C817.218 658.98 816.69 658.236 815.994 657.708C815.322 657.18 814.518 656.916 813.582 656.916C812.646 656.916 811.83 657.18 811.134 657.708C810.462 658.236 809.934 658.98 809.55 659.94C809.166 660.876 808.974 661.968 808.974 663.216C808.974 664.488 809.166 665.592 809.55 666.528C809.934 667.464 810.462 668.196 811.134 668.724C811.83 669.252 812.646 669.516 813.582 669.516ZM826.214 672V654.396H829.13L829.418 656.88H829.526C830.27 656.064 831.086 655.38 831.974 654.828C832.886 654.252 833.882 653.964 834.962 653.964C836.282 653.964 837.326 654.264 838.094 654.864C838.862 655.44 839.438 656.232 839.822 657.24C840.686 656.28 841.586 655.5 842.522 654.9C843.458 654.276 844.466 653.964 845.546 653.964C847.394 653.964 848.75 654.564 849.614 655.764C850.502 656.964 850.946 658.68 850.946 660.912V672H847.382V661.38C847.382 659.82 847.142 658.716 846.662 658.068C846.182 657.396 845.426 657.06 844.394 657.06C843.77 657.06 843.122 657.264 842.45 657.672C841.802 658.056 841.106 658.656 840.362 659.472V672H836.798V661.38C836.798 659.82 836.558 658.716 836.078 658.068C835.598 657.396 834.842 657.06 833.81 657.06C832.586 657.06 831.242 657.864 829.778 659.472V672H826.214ZM863.652 672.432C862.02 672.432 860.556 672.072 859.26 671.352C857.964 670.608 856.932 669.552 856.164 668.184C855.42 666.816 855.048 665.16 855.048 663.216C855.048 661.296 855.432 659.652 856.2 658.284C856.968 656.892 857.964 655.824 859.188 655.08C860.412 654.336 861.708 653.964 863.076 653.964C864.636 653.964 865.944 654.324 867 655.044C868.056 655.74 868.848 656.712 869.376 657.96C869.928 659.184 870.204 660.624 870.204 662.28C870.204 662.616 870.192 662.952 870.168 663.288C870.144 663.624 870.096 663.948 870.024 664.26H857.64V661.488H867.036C867.036 660 866.712 658.86 866.064 658.068C865.416 657.252 864.444 656.844 863.148 656.844C862.404 656.844 861.684 657.048 860.988 657.456C860.292 657.84 859.716 658.5 859.26 659.436C858.804 660.348 858.576 661.596 858.576 663.18C858.576 664.62 858.828 665.808 859.332 666.744C859.836 667.68 860.508 668.388 861.348 668.868C862.188 669.324 863.088 669.552 864.048 669.552C864.864 669.552 865.62 669.444 866.316 669.228C867.036 668.988 867.696 668.676 868.296 668.292L869.556 670.596C868.764 671.148 867.864 671.592 866.856 671.928C865.872 672.264 864.804 672.432 863.652 672.432ZM887.418 672.36C885.45 672.36 884.07 671.796 883.278 670.668C882.486 669.516 882.09 668.028 882.09 666.204V657.276H879.534V654.576L882.27 654.396L882.702 648.816H885.69V654.396H890.298V657.276H885.69V666.24C885.69 667.296 885.882 668.1 886.266 668.652C886.674 669.204 887.346 669.48 888.282 669.48C888.594 669.48 888.906 669.456 889.218 669.408C889.554 669.336 889.878 669.228 890.19 669.084L890.874 671.568C890.418 671.808 889.89 672 889.29 672.144C888.69 672.288 888.066 672.36 887.418 672.36ZM900.629 672.432C899.165 672.432 897.809 672.072 896.561 671.352C895.313 670.632 894.293 669.588 893.501 668.22C892.733 666.828 892.349 665.16 892.349 663.216C892.349 661.272 892.733 659.616 893.501 658.248C894.293 656.856 895.313 655.8 896.561 655.08C897.809 654.336 899.165 653.964 900.629 653.964C902.069 653.964 903.413 654.336 904.661 655.08C905.909 655.8 906.917 656.856 907.685 658.248C908.477 659.616 908.873 661.272 908.873 663.216C908.873 665.16 908.477 666.828 907.685 668.22C906.917 669.588 905.909 670.632 904.661 671.352C903.413 672.072 902.069 672.432 900.629 672.432ZM900.629 669.516C901.565 669.516 902.369 669.252 903.041 668.724C903.737 668.196 904.265 667.464 904.625 666.528C905.009 665.592 905.201 664.488 905.201 663.216C905.201 661.968 905.009 660.876 904.625 659.94C904.265 658.98 903.737 658.236 903.041 657.708C902.369 657.18 901.565 656.916 900.629 656.916C899.693 656.916 898.877 657.18 898.181 657.708C897.509 658.236 896.981 658.98 896.597 659.94C896.213 660.876 896.021 661.968 896.021 663.216C896.021 664.488 896.213 665.592 896.597 666.528C896.981 667.464 897.509 668.196 898.181 668.724C898.877 669.252 899.693 669.516 900.629 669.516ZM925.22 672.432C923.948 672.432 922.736 672.216 921.584 671.784C920.432 671.328 919.436 670.692 918.596 669.876L920.18 667.824C920.972 668.448 921.776 668.916 922.592 669.228C923.408 669.54 924.32 669.696 925.328 669.696C926.384 669.696 927.164 669.468 927.668 669.012C928.196 668.532 928.46 667.956 928.46 667.284C928.46 666.756 928.268 666.312 927.884 665.952C927.524 665.568 927.056 665.256 926.48 665.016C925.904 664.752 925.292 664.5 924.644 664.26C923.78 663.948 922.952 663.576 922.16 663.144C921.392 662.688 920.768 662.136 920.288 661.488C919.808 660.84 919.568 660.048 919.568 659.112C919.568 657.624 920.12 656.4 921.224 655.44C922.352 654.456 923.888 653.964 925.832 653.964C926.96 653.964 928.004 654.156 928.964 654.54C929.948 654.924 930.788 655.416 931.484 656.016L929.9 658.068C929.276 657.636 928.64 657.3 927.992 657.06C927.344 656.82 926.636 656.7 925.868 656.7C924.884 656.7 924.152 656.928 923.672 657.384C923.192 657.816 922.952 658.332 922.952 658.932C922.952 659.412 923.096 659.82 923.384 660.156C923.696 660.468 924.116 660.744 924.644 660.984C925.196 661.224 925.844 661.476 926.588 661.74C927.5 662.052 928.352 662.424 929.144 662.856C929.96 663.288 930.608 663.84 931.088 664.512C931.592 665.184 931.844 666.036 931.844 667.068C931.844 668.052 931.592 668.952 931.088 669.768C930.584 670.584 929.84 671.232 928.856 671.712C927.872 672.192 926.66 672.432 925.22 672.432ZM935.761 679.2V654.396H938.677L938.965 656.376H939.073C939.841 655.704 940.693 655.14 941.629 654.684C942.565 654.204 943.525 653.964 944.509 653.964C945.997 653.964 947.257 654.336 948.289 655.08C949.321 655.824 950.101 656.868 950.629 658.212C951.181 659.556 951.457 661.128 951.457 662.928C951.457 664.944 951.097 666.66 950.377 668.076C949.681 669.492 948.757 670.572 947.605 671.316C946.453 672.06 945.217 672.432 943.897 672.432C943.129 672.432 942.337 672.264 941.521 671.928C940.729 671.568 939.961 671.076 939.217 670.452L939.325 673.44V679.2H935.761ZM943.213 669.48C944.077 669.48 944.857 669.228 945.553 668.724C946.249 668.22 946.789 667.488 947.173 666.528C947.581 665.544 947.785 664.356 947.785 662.964C947.785 661.74 947.641 660.684 947.353 659.796C947.065 658.884 946.609 658.188 945.985 657.708C945.361 657.204 944.557 656.952 943.573 656.952C942.901 656.952 942.217 657.132 941.521 657.492C940.825 657.852 940.093 658.392 939.325 659.112V667.824C940.021 668.424 940.705 668.856 941.377 669.12C942.073 669.36 942.685 669.48 943.213 669.48ZM959.553 672.432C958.545 672.432 957.645 672.228 956.853 671.82C956.085 671.412 955.473 670.824 955.017 670.056C954.585 669.288 954.369 668.388 954.369 667.356C954.369 665.364 955.209 663.864 956.889 662.856C958.593 661.848 961.281 661.14 964.953 660.732C964.953 660.084 964.845 659.472 964.629 658.896C964.437 658.296 964.089 657.828 963.585 657.492C963.081 657.132 962.397 656.952 961.533 656.952C960.597 656.952 959.697 657.12 958.833 657.456C957.993 657.792 957.189 658.2 956.421 658.68L955.089 656.232C955.689 655.848 956.361 655.488 957.105 655.152C957.849 654.792 958.641 654.504 959.481 654.288C960.345 654.072 961.245 653.964 962.181 653.964C963.621 653.964 964.809 654.264 965.745 654.864C966.681 655.464 967.377 656.316 967.833 657.42C968.289 658.524 968.517 659.856 968.517 661.416V672H965.565L965.313 669.984H965.169C964.353 670.656 963.477 671.232 962.541 671.712C961.629 672.192 960.633 672.432 959.553 672.432ZM960.633 669.516C961.401 669.516 962.121 669.348 962.793 669.012C963.489 668.652 964.209 668.136 964.953 667.464V663.252C963.177 663.468 961.761 663.756 960.705 664.116C959.673 664.452 958.929 664.872 958.473 665.376C958.041 665.856 957.825 666.432 957.825 667.104C957.825 667.968 958.089 668.592 958.617 668.976C959.169 669.336 959.841 669.516 960.633 669.516ZM980.965 672.432C979.357 672.432 977.917 672.072 976.645 671.352C975.373 670.608 974.365 669.552 973.621 668.184C972.877 666.816 972.505 665.16 972.505 663.216C972.505 661.272 972.901 659.616 973.693 658.248C974.509 656.856 975.577 655.8 976.897 655.08C978.217 654.336 979.633 653.964 981.145 653.964C982.297 653.964 983.293 654.156 984.133 654.54C984.973 654.924 985.705 655.404 986.329 655.98L984.601 658.212C984.193 657.828 983.713 657.516 983.161 657.276C982.633 657.036 982.021 656.916 981.325 656.916C980.341 656.916 979.465 657.18 978.697 657.708C977.929 658.236 977.317 658.968 976.861 659.904C976.405 660.84 976.177 661.944 976.177 663.216C976.177 664.488 976.393 665.592 976.825 666.528C977.257 667.464 977.857 668.196 978.625 668.724C979.393 669.252 980.281 669.516 981.289 669.516C982.033 669.516 982.729 669.372 983.377 669.084C984.025 668.796 984.601 668.424 985.105 667.968L986.617 670.164C985.873 670.86 985.021 671.412 984.061 671.82C983.101 672.228 982.069 672.432 980.965 672.432ZM996.824 672.432C995.192 672.432 993.728 672.072 992.432 671.352C991.136 670.608 990.104 669.552 989.336 668.184C988.592 666.816 988.22 665.16 988.22 663.216C988.22 661.296 988.604 659.652 989.372 658.284C990.14 656.892 991.136 655.824 992.36 655.08C993.584 654.336 994.88 653.964 996.248 653.964C997.808 653.964 999.116 654.324 1000.17 655.044C1001.23 655.74 1002.02 656.712 1002.55 657.96C1003.1 659.184 1003.38 660.624 1003.38 662.28C1003.38 662.616 1003.36 662.952 1003.34 663.288C1003.32 663.624 1003.27 663.948 1003.2 664.26H990.812V661.488H1000.21C1000.21 660 999.884 658.86 999.236 658.068C998.588 657.252 997.616 656.844 996.32 656.844C995.576 656.844 994.856 657.048 994.16 657.456C993.464 657.84 992.888 658.5 992.432 659.436C991.976 660.348 991.748 661.596 991.748 663.18C991.748 664.62 992 665.808 992.504 666.744C993.008 667.68 993.68 668.388 994.52 668.868C995.36 669.324 996.26 669.552 997.22 669.552C998.036 669.552 998.792 669.444 999.488 669.228C1000.21 668.988 1000.87 668.676 1001.47 668.292L1002.73 670.596C1001.94 671.148 1001.04 671.592 1000.03 671.928C999.044 672.264 997.976 672.432 996.824 672.432ZM1021.92 672.432C1020.31 672.432 1018.87 672.072 1017.6 671.352C1016.33 670.608 1015.32 669.552 1014.58 668.184C1013.83 666.816 1013.46 665.16 1013.46 663.216C1013.46 661.272 1013.86 659.616 1014.65 658.248C1015.47 656.856 1016.53 655.8 1017.85 655.08C1019.17 654.336 1020.59 653.964 1022.1 653.964C1023.25 653.964 1024.25 654.156 1025.09 654.54C1025.93 654.924 1026.66 655.404 1027.29 655.98L1025.56 658.212C1025.15 657.828 1024.67 657.516 1024.12 657.276C1023.59 657.036 1022.98 656.916 1022.28 656.916C1021.3 656.916 1020.42 657.18 1019.65 657.708C1018.89 658.236 1018.27 658.968 1017.82 659.904C1017.36 660.84 1017.13 661.944 1017.13 663.216C1017.13 664.488 1017.35 665.592 1017.78 666.528C1018.21 667.464 1018.81 668.196 1019.58 668.724C1020.35 669.252 1021.24 669.516 1022.25 669.516C1022.99 669.516 1023.69 669.372 1024.33 669.084C1024.98 668.796 1025.56 668.424 1026.06 667.968L1027.57 670.164C1026.83 670.86 1025.98 671.412 1025.02 671.82C1024.06 672.228 1023.03 672.432 1021.92 672.432ZM1037.46 672.432C1035.99 672.432 1034.64 672.072 1033.39 671.352C1032.14 670.632 1031.12 669.588 1030.33 668.22C1029.56 666.828 1029.18 665.16 1029.18 663.216C1029.18 661.272 1029.56 659.616 1030.33 658.248C1031.12 656.856 1032.14 655.8 1033.39 655.08C1034.64 654.336 1035.99 653.964 1037.46 653.964C1038.9 653.964 1040.24 654.336 1041.49 655.08C1042.74 655.8 1043.74 656.856 1044.51 658.248C1045.3 659.616 1045.7 661.272 1045.7 663.216C1045.7 665.16 1045.3 666.828 1044.51 668.22C1043.74 669.588 1042.74 670.632 1041.49 671.352C1040.24 672.072 1038.9 672.432 1037.46 672.432ZM1037.46 669.516C1038.39 669.516 1039.2 669.252 1039.87 668.724C1040.56 668.196 1041.09 667.464 1041.45 666.528C1041.84 665.592 1042.03 664.488 1042.03 663.216C1042.03 661.968 1041.84 660.876 1041.45 659.94C1041.09 658.98 1040.56 658.236 1039.87 657.708C1039.2 657.18 1038.39 656.916 1037.46 656.916C1036.52 656.916 1035.7 657.18 1035.01 657.708C1034.34 658.236 1033.81 658.98 1033.42 659.94C1033.04 660.876 1032.85 661.968 1032.85 663.216C1032.85 664.488 1033.04 665.592 1033.42 666.528C1033.81 667.464 1034.34 668.196 1035.01 668.724C1035.7 669.252 1036.52 669.516 1037.46 669.516ZM1050.09 672V654.396H1053.01L1053.29 656.88H1053.4C1054.15 656.064 1054.96 655.38 1055.85 654.828C1056.76 654.252 1057.76 653.964 1058.84 653.964C1060.16 653.964 1061.2 654.264 1061.97 654.864C1062.74 655.44 1063.31 656.232 1063.7 657.24C1064.56 656.28 1065.46 655.5 1066.4 654.9C1067.33 654.276 1068.34 653.964 1069.42 653.964C1071.27 653.964 1072.63 654.564 1073.49 655.764C1074.38 656.964 1074.82 658.68 1074.82 660.912V672H1071.26V661.38C1071.26 659.82 1071.02 658.716 1070.54 658.068C1070.06 657.396 1069.3 657.06 1068.27 657.06C1067.65 657.06 1067 657.264 1066.33 657.672C1065.68 658.056 1064.98 658.656 1064.24 659.472V672H1060.67V661.38C1060.67 659.82 1060.43 658.716 1059.95 658.068C1059.47 657.396 1058.72 657.06 1057.69 657.06C1056.46 657.06 1055.12 657.864 1053.65 659.472V672H1050.09ZM1080.18 672V654.396H1083.1L1083.39 656.88H1083.5C1084.24 656.064 1085.06 655.38 1085.94 654.828C1086.86 654.252 1087.85 653.964 1088.93 653.964C1090.25 653.964 1091.3 654.264 1092.06 654.864C1092.83 655.44 1093.41 656.232 1093.79 657.24C1094.66 656.28 1095.56 655.5 1096.49 654.9C1097.43 654.276 1098.44 653.964 1099.52 653.964C1101.36 653.964 1102.72 654.564 1103.58 655.764C1104.47 656.964 1104.92 658.68 1104.92 660.912V672H1101.35V661.38C1101.35 659.82 1101.11 658.716 1100.63 658.068C1100.15 657.396 1099.4 657.06 1098.36 657.06C1097.74 657.06 1097.09 657.264 1096.42 657.672C1095.77 658.056 1095.08 658.656 1094.33 659.472V672H1090.77V661.38C1090.77 659.82 1090.53 658.716 1090.05 658.068C1089.57 657.396 1088.81 657.06 1087.78 657.06C1086.56 657.06 1085.21 657.864 1083.75 659.472V672H1080.18ZM1115.42 672.432C1113.58 672.432 1112.22 671.832 1111.36 670.632C1110.49 669.432 1110.06 667.716 1110.06 665.484V654.396H1113.62V665.052C1113.62 666.588 1113.85 667.692 1114.31 668.364C1114.79 669.012 1115.56 669.336 1116.61 669.336C1117.45 669.336 1118.18 669.132 1118.81 668.724C1119.46 668.292 1120.16 667.608 1120.93 666.672V654.396H1124.5V672H1121.54L1121.26 669.336H1121.18C1120.39 670.272 1119.53 671.028 1118.59 671.604C1117.68 672.156 1116.62 672.432 1115.42 672.432ZM1130.07 672V654.396H1132.99L1133.27 656.88H1133.38C1134.2 656.064 1135.07 655.38 1136.01 654.828C1136.95 654.252 1138.01 653.964 1139.21 653.964C1141.09 653.964 1142.45 654.564 1143.32 655.764C1144.18 656.964 1144.61 658.68 1144.61 660.912V672H1141.05V661.38C1141.05 659.82 1140.81 658.716 1140.33 658.068C1139.85 657.396 1139.08 657.06 1138.03 657.06C1137.19 657.06 1136.44 657.264 1135.79 657.672C1135.15 658.08 1134.43 658.68 1133.63 659.472V672H1130.07ZM1149.93 672V654.396H1153.5V672H1149.93ZM1151.73 651.048C1151.08 651.048 1150.54 650.856 1150.11 650.472C1149.7 650.064 1149.5 649.536 1149.5 648.888C1149.5 648.264 1149.7 647.76 1150.11 647.376C1150.54 646.968 1151.08 646.764 1151.73 646.764C1152.4 646.764 1152.94 646.968 1153.35 647.376C1153.76 647.76 1153.96 648.264 1153.96 648.888C1153.96 649.536 1153.76 650.064 1153.35 650.472C1152.94 650.856 1152.4 651.048 1151.73 651.048ZM1164.98 672.36C1163.01 672.36 1161.63 671.796 1160.84 670.668C1160.04 669.516 1159.65 668.028 1159.65 666.204V657.276H1157.09V654.576L1159.83 654.396L1160.26 648.816H1163.25V654.396H1167.86V657.276H1163.25V666.24C1163.25 667.296 1163.44 668.1 1163.82 668.652C1164.23 669.204 1164.9 669.48 1165.84 669.48C1166.15 669.48 1166.46 669.456 1166.78 669.408C1167.11 669.336 1167.44 669.228 1167.75 669.084L1168.43 671.568C1167.98 671.808 1167.45 672 1166.85 672.144C1166.25 672.288 1165.62 672.36 1164.98 672.36ZM1172.41 679.38C1171.98 679.38 1171.59 679.344 1171.23 679.272C1170.87 679.2 1170.53 679.116 1170.22 679.02L1170.94 676.284C1171.18 676.356 1171.39 676.404 1171.59 676.428C1171.8 676.476 1172.01 676.5 1172.2 676.5C1173.16 676.5 1173.94 676.176 1174.54 675.528C1175.16 674.88 1175.63 674.076 1175.94 673.116L1176.3 671.892L1169.32 654.396H1172.95L1176.27 663.576C1176.53 664.344 1176.79 665.16 1177.06 666.024C1177.35 666.864 1177.62 667.704 1177.89 668.544H1178.03C1178.27 667.728 1178.51 666.9 1178.75 666.06C1178.99 665.196 1179.22 664.368 1179.43 663.576L1182.31 654.396H1185.77L1179.29 673.116C1178.83 674.364 1178.31 675.456 1177.71 676.392C1177.11 677.328 1176.37 678.06 1175.51 678.588C1174.67 679.116 1173.64 679.38 1172.41 679.38Z" fill="#475569"/>
<path d="M741 625L1168 625" stroke="#475569" stroke-opacity="0.7" stroke-width="2"/>
<mask id="path-4-inside-1_1130_3" fill="white">
<path d="M772 402.918L970.932 501.087C970.932 501.087 976.332 505.299 973.189 511.104C969.093 515.26 961.325 513.4 961.325 513.4L772 402.918Z"/>
<path d="M970.405 487.105C973.139 483.276 969.066 480.295 969.066 480.295L958.405 474.987C956.502 477.671 952.328 476.095 952.328 476.095L902.721 447.261L816.93 404.545L961.709 488.691C961.709 488.691 967.686 490.932 970.405 487.105Z"/>
<path d="M952.328 476.095C952.328 476.095 956.502 477.671 958.405 474.987L902.721 447.261L952.328 476.095Z"/>
<path d="M944.769 509.993L792.633 434.242L899.957 496.616L927.243 510.2C927.243 510.2 929.014 511.504 928.799 513.379L937.41 518.383C937.41 518.383 943.382 520.63 946.108 516.802C948.834 512.975 944.769 509.993 944.769 509.993Z"/>
<path d="M928.799 513.379C929.014 511.504 927.243 510.2 927.243 510.2L899.957 496.616L928.799 513.379Z"/>
<path d="M851.845 487.001L900.306 510.978C900.306 510.978 901.701 511.943 900.731 513.208C899.762 514.473 897.719 513.741 897.719 513.741L851.845 487.001Z"/>
<path d="M896.394 427.118L944.859 451.088C944.859 451.088 946.24 452.054 945.271 453.32C944.306 454.578 942.253 453.859 942.253 453.859L896.394 427.118Z"/>
</mask>
<path d="M772 402.918L970.932 501.087C970.932 501.087 976.332 505.299 973.189 511.104C969.093 515.26 961.325 513.4 961.325 513.4L772 402.918Z" fill="#475569"/>
<path d="M970.405 487.105C973.139 483.276 969.066 480.295 969.066 480.295L958.405 474.987C956.502 477.671 952.328 476.095 952.328 476.095L902.721 447.261L816.93 404.545L961.709 488.691C961.709 488.691 967.686 490.932 970.405 487.105Z" fill="#475569"/>
<path d="M952.328 476.095C952.328 476.095 956.502 477.671 958.405 474.987L902.721 447.261L952.328 476.095Z" fill="#475569"/>
<path d="M944.769 509.993L792.633 434.242L899.957 496.616L927.243 510.2C927.243 510.2 929.014 511.504 928.799 513.379L937.41 518.383C937.41 518.383 943.382 520.63 946.108 516.802C948.834 512.975 944.769 509.993 944.769 509.993Z" fill="#475569"/>
<path d="M928.799 513.379C929.014 511.504 927.243 510.2 927.243 510.2L899.957 496.616L928.799 513.379Z" fill="#475569"/>
<path d="M851.845 487.001L900.306 510.978C900.306 510.978 901.701 511.943 900.731 513.208C899.762 514.473 897.719 513.741 897.719 513.741L851.845 487.001Z" fill="#475569"/>
<path d="M896.394 427.118L944.859 451.088C944.859 451.088 946.24 452.054 945.271 453.32C944.306 454.578 942.253 453.859 942.253 453.859L896.394 427.118Z" fill="#475569"/>
<path d="M851.17 417.297L857.187 403.464L843.892 430.451L851.17 417.297ZM957.477 470.228L966.732 458.368L965.196 457.242L963.494 456.394L957.477 470.228ZM952.328 476.095L945.049 489.249L946.636 490.171L948.337 490.813L952.328 476.095ZM820.937 457.276L826.954 443.442L813.66 470.429L820.937 457.276ZM927.243 510.2L936.531 498.365L934.98 497.224L933.259 496.367L927.243 510.2ZM928.16 514.949L943.222 525.337L943.234 525.321L943.245 525.304L928.16 514.949ZM922.085 516.063L914.807 529.217L916.407 530.147L918.122 530.791L922.085 516.063ZM928.799 513.379L946.12 517.815V517.815L928.799 513.379ZM899.957 496.616L893.94 510.449L893.94 510.449L899.957 496.616ZM845.153 431.13L951.46 484.061L963.494 456.394L857.187 403.464L845.153 431.13ZM957.477 470.228C948.222 482.087 948.213 482.081 948.205 482.075C948.202 482.073 948.194 482.067 948.189 482.063C948.178 482.055 948.167 482.047 948.156 482.039C948.134 482.023 948.112 482.006 948.091 481.99C948.047 481.958 948.004 481.925 947.96 481.892C947.874 481.827 947.787 481.76 947.701 481.693C947.528 481.558 947.353 481.416 947.177 481.268C946.83 480.976 946.452 480.636 946.062 480.245C945.329 479.509 944.288 478.327 943.389 476.692C942.438 474.963 941.643 472.706 941.653 470.204C941.662 467.68 942.487 465.806 943.32 464.63L973.49 485.344C977.571 479.589 977.221 472.51 973.921 466.51C972.552 464.02 970.922 462.152 969.717 460.943C969.091 460.315 968.508 459.792 968.013 459.376C967.763 459.166 967.529 458.977 967.316 458.81C967.209 458.727 967.107 458.648 967.01 458.575C966.961 458.538 966.914 458.502 966.867 458.468C966.844 458.451 966.822 458.434 966.799 458.417C966.788 458.409 966.777 458.401 966.766 458.392C966.76 458.388 966.752 458.382 966.749 458.38C966.741 458.374 966.732 458.368 957.477 470.228ZM943.32 464.63C945.968 460.896 950.361 460.426 952.402 460.519C953.389 460.564 954.172 460.726 954.679 460.854C954.957 460.924 955.225 461.002 955.485 461.085C955.616 461.127 955.75 461.172 955.888 461.221C955.957 461.245 956.027 461.27 956.099 461.296C956.135 461.309 956.171 461.322 956.208 461.336C956.226 461.343 956.244 461.35 956.263 461.357C956.272 461.36 956.281 461.364 956.291 461.367C956.295 461.369 956.302 461.371 956.305 461.372C956.312 461.375 956.319 461.378 952.328 476.095C948.337 490.813 948.344 490.816 948.351 490.818C948.354 490.819 948.361 490.822 948.365 490.824C948.375 490.827 948.385 490.831 948.395 490.835C948.414 490.842 948.434 490.849 948.454 490.857C948.495 490.872 948.537 490.888 948.581 490.903C948.669 490.935 948.763 490.969 948.863 491.004C949.062 491.074 949.288 491.15 949.537 491.231C950.033 491.39 950.641 491.57 951.341 491.745C952.69 492.084 954.635 492.472 956.904 492.576C961.507 492.786 968.939 491.761 973.49 485.344L943.32 464.63ZM913.097 504.561C915.735 500.867 920.087 500.391 922.125 500.481C923.11 500.525 923.892 500.685 924.402 500.812C924.682 500.882 924.95 500.959 925.211 501.043C925.343 501.085 925.477 501.13 925.615 501.178C925.685 501.202 925.755 501.227 925.827 501.253C925.863 501.267 925.899 501.28 925.936 501.293C925.954 501.3 925.973 501.307 925.991 501.314C926.001 501.317 926.01 501.321 926.019 501.324C926.024 501.326 926.031 501.329 926.033 501.33C926.04 501.332 926.048 501.335 922.085 516.063C918.122 530.791 918.129 530.794 918.136 530.797C918.138 530.798 918.145 530.8 918.15 530.802C918.16 530.806 918.169 530.809 918.179 530.813C918.199 530.82 918.219 530.828 918.239 530.835C918.28 530.85 918.322 530.866 918.366 530.882C918.454 530.914 918.548 530.947 918.648 530.982C918.848 531.052 919.074 531.128 919.324 531.208C919.82 531.366 920.428 531.545 921.128 531.72C922.478 532.056 924.42 532.441 926.685 532.54C931.283 532.743 938.673 531.71 943.222 525.337L913.097 504.561ZM929.362 502.909L828.215 444.122L813.66 470.429L914.807 529.217L929.362 502.909ZM909.999 434.108L858.449 404.144L843.892 430.451L895.442 460.414L909.999 434.108ZM959.606 462.942L909.999 434.108L895.442 460.414L945.049 489.249L959.606 462.942ZM896.703 461.094L963.049 494.128L975.084 466.462L908.738 433.428L896.703 461.094ZM946.12 517.815C946.796 511.901 944.218 506.839 941.918 503.741C940.793 502.226 939.652 501.049 938.761 500.219C938.304 499.794 937.88 499.429 937.509 499.126C937.323 498.973 937.147 498.834 936.984 498.707C936.903 498.644 936.824 498.584 936.748 498.527C936.711 498.499 936.674 498.471 936.637 498.444C936.619 498.43 936.601 498.417 936.584 498.404C936.575 498.397 936.566 498.391 936.557 498.384C936.553 498.381 936.546 498.376 936.544 498.375C936.537 498.37 936.531 498.365 927.243 510.2C917.955 522.036 917.948 522.031 917.942 522.026C917.939 522.025 917.933 522.02 917.929 522.017C917.92 522.01 917.911 522.004 917.903 521.997C917.885 521.985 917.868 521.972 917.851 521.959C917.816 521.933 917.782 521.907 917.747 521.881C917.678 521.829 917.61 521.777 917.541 521.724C917.404 521.617 917.266 521.508 917.128 521.395C916.853 521.17 916.566 520.922 916.271 520.648C915.705 520.12 914.994 519.387 914.285 518.432C912.816 516.454 911.017 512.981 911.478 508.942L946.12 517.815ZM933.259 496.367L905.973 482.782L893.94 510.449L921.226 524.034L933.259 496.367ZM814.921 471.109L893.94 510.449L905.973 482.782L826.954 443.442L814.921 471.109ZM911.478 508.942C911.701 506.991 912.401 505.543 913.074 504.594L943.245 525.304C944.704 523.247 945.785 520.744 946.12 517.815L911.478 508.942ZM772 402.918L783.894 375.182L757.377 429.186L772 402.918ZM970.932 501.087L990.497 478.166L986.906 475.365L982.825 473.351L970.932 501.087ZM973.189 511.104L1000.78 534.887L1003.26 532.375L1004.93 529.292L973.189 511.104ZM961.325 513.4L946.702 539.668L952.293 542.931L958.433 544.401L961.325 513.4ZM816.93 404.545L828.965 376.879L802.374 430.852L816.93 404.545ZM969.066 480.295L987.552 456.558L984.491 454.317L981.101 452.629L969.066 480.295ZM970.405 487.105L940.281 466.329L940.265 466.352L940.248 466.374L970.405 487.105ZM961.709 488.691L947.153 514.999L950.369 516.868L953.817 518.161L961.709 488.691ZM792.633 434.242L804.668 406.576L778.078 460.55L792.633 434.242ZM944.769 509.993L963.289 486.28L960.213 484.024L956.804 482.327L944.769 509.993ZM937.41 518.383L922.855 544.691L926.046 546.545L929.467 547.833L937.41 518.383ZM958.405 474.987L946.37 502.653L946.37 502.653L958.405 474.987ZM896.394 427.118L908.323 399.4L881.784 453.394L896.394 427.118ZM944.859 451.088L962.577 426.801L959.809 424.864L956.788 423.369L944.859 451.088ZM945.271 453.32L915.643 431.872L915.642 431.873L945.271 453.32ZM942.253 453.859L927.643 480.135L931.297 482.266L935.24 483.647L942.253 453.859ZM851.845 487.001L863.78 459.286L837.241 513.281L851.845 487.001ZM900.306 510.978L917.815 486.546L915.143 484.699L912.24 483.262L900.306 510.978ZM900.731 513.208L871.103 491.76L900.731 513.208ZM897.719 513.741L883.115 540.02L886.625 542.066L890.405 543.422L897.719 513.741ZM902.721 447.261L914.756 419.595L914.755 419.595L902.721 447.261ZM928.799 513.379L943.354 487.071L943.354 487.07L928.799 513.379ZM899.957 496.616L914.511 470.308L899.957 496.616ZM760.106 430.654L959.038 528.823L982.825 473.351L783.894 375.182L760.106 430.654ZM970.932 501.087C951.366 524.008 951.35 523.995 951.334 523.983C951.328 523.979 951.312 523.966 951.301 523.957C951.28 523.941 951.258 523.924 951.236 523.907C951.193 523.873 951.15 523.839 951.107 523.805C951.022 523.737 950.936 523.669 950.851 523.6C950.68 523.463 950.51 523.324 950.341 523.183C950.003 522.902 949.664 522.61 949.324 522.307C948.653 521.706 947.944 521.027 947.224 520.263C945.843 518.796 944.073 516.644 942.54 513.796C940.942 510.826 939.603 507.082 939.382 502.923C939.158 498.698 940.158 495.299 941.449 492.915L1004.93 529.292C1011.25 517.61 1009.64 504.628 1003.94 494.041C1001.45 489.415 998.524 485.846 996.229 483.409C995.052 482.159 993.946 481.106 992.991 480.252C992.51 479.822 992.058 479.434 991.642 479.089C991.434 478.915 991.234 478.752 991.043 478.599C990.948 478.522 990.855 478.447 990.764 478.375C990.718 478.339 990.673 478.304 990.629 478.269C990.607 478.251 990.585 478.234 990.563 478.217C990.552 478.208 990.535 478.196 990.53 478.191C990.514 478.179 990.497 478.166 970.932 501.087ZM945.594 487.32C950.64 482.199 956.897 481.765 958.725 481.724C959.916 481.698 960.893 481.793 961.617 481.893C962.009 481.947 962.407 482.014 962.822 482.094C963.031 482.135 963.25 482.18 963.481 482.23C963.597 482.255 963.715 482.282 963.838 482.31C963.899 482.324 963.962 482.338 964.025 482.353C964.057 482.361 964.089 482.368 964.121 482.376C964.137 482.38 964.153 482.383 964.169 482.387C964.177 482.389 964.189 482.392 964.194 482.393C964.206 482.396 964.218 482.399 961.325 513.4C958.433 544.401 958.445 544.404 958.458 544.407C958.462 544.408 958.474 544.411 958.483 544.413C958.499 544.417 958.516 544.421 958.533 544.425C958.567 544.433 958.602 544.441 958.637 544.449C958.708 544.466 958.782 544.483 958.858 544.5C959.01 544.535 959.173 544.572 959.346 544.609C959.693 544.685 960.083 544.766 960.513 544.849C961.368 545.015 962.406 545.195 963.589 545.359C965.898 545.677 969.072 545.978 972.718 545.897C979.453 545.747 991.642 544.165 1000.78 534.887L945.594 487.32ZM975.949 487.132L786.623 376.65L757.377 429.186L946.702 539.668L975.949 487.132ZM969.066 480.295C950.581 504.033 950.565 504.021 950.549 504.009C950.543 504.005 950.527 503.993 950.516 503.985C950.494 503.969 950.472 503.953 950.45 503.937C950.407 503.905 950.363 503.872 950.32 503.84C950.232 503.775 950.145 503.709 950.057 503.643C949.881 503.511 949.705 503.375 949.527 503.236C949.172 502.959 948.807 502.665 948.436 502.353C947.703 501.738 946.893 501.011 946.048 500.166C944.456 498.573 942.205 496.023 940.266 492.516C938.224 488.82 936.512 483.997 936.529 478.63C936.546 473.217 938.318 469.078 940.281 466.329L1000.53 507.882C1008.23 497.09 1007.62 483.536 1001.26 472.013C998.64 467.282 995.542 463.748 993.271 461.476C992.088 460.291 990.981 459.302 990.036 458.509C989.559 458.108 989.109 457.746 988.696 457.424C988.489 457.262 988.29 457.109 988.099 456.965C988.004 456.893 987.91 456.823 987.819 456.755C987.773 456.721 987.728 456.688 987.684 456.655C987.661 456.638 987.639 456.622 987.617 456.606C987.606 456.598 987.59 456.586 987.584 456.582C987.568 456.57 987.552 456.558 969.066 480.295ZM940.248 466.374C946.1 458.139 955.75 457.063 960.5 457.275C962.823 457.379 964.705 457.761 965.951 458.072C966.623 458.239 967.251 458.422 967.835 458.608C968.13 458.702 968.423 458.8 968.715 458.901C968.861 458.952 969.007 459.004 969.155 459.058C969.228 459.084 969.302 459.111 969.376 459.139C969.413 459.152 969.451 459.166 969.488 459.18C969.506 459.187 969.525 459.194 969.544 459.201C969.553 459.204 969.567 459.21 969.572 459.211C969.586 459.217 969.6 459.222 961.709 488.691C953.817 518.161 953.831 518.166 953.846 518.171C953.85 518.173 953.864 518.178 953.874 518.182C953.893 518.189 953.912 518.196 953.932 518.203C953.97 518.218 954.01 518.232 954.05 518.247C954.13 518.276 954.212 518.307 954.297 518.337C954.467 518.399 954.648 518.463 954.838 518.529C955.219 518.662 955.643 518.804 956.107 518.952C957.028 519.246 958.144 519.573 959.419 519.891C961.871 520.502 965.417 521.206 969.574 521.391C977.993 521.767 991.992 519.898 1000.56 507.836L940.248 466.374ZM976.264 462.384L831.486 378.237L802.374 430.852L947.153 514.999L976.264 462.384ZM780.598 461.908L932.735 537.659L956.804 482.327L804.668 406.576L780.598 461.908ZM944.769 509.993C926.25 533.705 926.233 533.693 926.217 533.681C926.212 533.677 926.195 533.665 926.184 533.657C926.163 533.641 926.141 533.625 926.119 533.609C926.075 533.577 926.032 533.544 925.988 533.512C925.901 533.447 925.813 533.381 925.726 533.315C925.55 533.182 925.374 533.046 925.196 532.907C924.841 532.63 924.477 532.336 924.107 532.024C923.374 531.407 922.565 530.681 921.722 529.836C920.132 528.242 917.888 525.695 915.956 522.193C913.92 518.506 912.214 513.694 912.228 508.34C912.243 502.937 914.007 498.801 915.968 496.049L976.249 537.556C983.936 526.763 983.312 513.228 976.967 501.731C974.359 497.005 971.268 493.474 969.001 491.201C967.82 490.017 966.715 489.027 965.771 488.233C965.294 487.832 964.845 487.47 964.433 487.147C964.226 486.985 964.027 486.832 963.836 486.688C963.741 486.616 963.648 486.546 963.556 486.478C963.511 486.444 963.466 486.411 963.421 486.378C963.399 486.361 963.377 486.345 963.355 486.329C963.344 486.321 963.327 486.309 963.322 486.305C963.305 486.292 963.289 486.28 944.769 509.993ZM915.968 496.049C921.82 487.832 931.461 486.754 936.232 486.971C938.56 487.077 940.447 487.463 941.696 487.775C942.37 487.944 942.999 488.128 943.584 488.315C943.88 488.41 944.173 488.508 944.466 488.61C944.612 488.662 944.759 488.714 944.906 488.768C944.98 488.794 945.054 488.822 945.128 488.849C945.165 488.863 945.203 488.877 945.24 488.89C945.259 488.897 945.277 488.904 945.296 488.911C945.305 488.915 945.319 488.92 945.324 488.922C945.338 488.927 945.352 488.933 937.41 518.383C929.467 547.833 929.481 547.838 929.495 547.843C929.5 547.845 929.514 547.851 929.524 547.854C929.543 547.861 929.562 547.868 929.581 547.876C929.62 547.89 929.659 547.905 929.699 547.92C929.78 547.949 929.862 547.98 929.947 548.01C930.118 548.072 930.298 548.137 930.489 548.204C930.87 548.337 931.295 548.48 931.759 548.629C932.681 548.924 933.798 549.253 935.075 549.573C937.529 550.187 941.079 550.895 945.241 551.085C953.68 551.469 967.671 549.601 976.249 537.556L915.968 496.049ZM884.465 454.837L932.931 478.807L956.788 423.369L908.323 399.4L884.465 454.837ZM944.859 451.088C927.141 475.375 927.124 475.363 927.107 475.351C927.102 475.347 927.085 475.335 927.074 475.327C927.051 475.312 927.029 475.296 927.006 475.28C926.961 475.248 926.915 475.215 926.869 475.183C926.778 475.118 926.685 475.052 926.592 474.984C926.405 474.849 926.215 474.709 926.02 474.564C925.632 474.273 925.224 473.958 924.8 473.616C923.962 472.941 923.007 472.119 921.997 471.143C920.086 469.298 917.357 466.307 915.042 462.175C912.597 457.811 910.645 452.189 910.804 446.003C910.962 439.827 913.172 435.097 915.643 431.872L974.898 474.767C977.854 470.91 980.255 465.585 980.427 458.872C980.599 452.148 978.484 446.048 975.815 441.284C973.276 436.752 970.262 433.44 968.123 431.374C966.998 430.288 965.943 429.381 965.034 428.648C964.574 428.277 964.137 427.94 963.729 427.635C963.525 427.482 963.326 427.336 963.134 427.198C963.039 427.128 962.944 427.061 962.851 426.995C962.805 426.961 962.759 426.929 962.713 426.897C962.69 426.881 962.668 426.865 962.645 426.849C962.634 426.841 962.617 426.829 962.611 426.825C962.594 426.813 962.577 426.801 944.859 451.088ZM915.642 431.873C922.502 422.919 933.148 421.799 938.521 421.99C941.266 422.087 943.555 422.506 945.128 422.868C945.959 423.059 946.716 423.264 947.386 423.463C947.725 423.563 948.05 423.665 948.361 423.766C948.517 423.816 948.671 423.867 948.821 423.918C948.896 423.944 948.971 423.969 949.045 423.995C949.082 424.007 949.119 424.02 949.156 424.033C949.174 424.039 949.193 424.046 949.211 424.052C949.22 424.055 949.234 424.06 949.239 424.062C949.252 424.067 949.266 424.071 942.253 453.859C935.24 483.647 935.254 483.652 935.268 483.657C935.272 483.658 935.286 483.663 935.295 483.666C935.314 483.673 935.332 483.679 935.351 483.686C935.388 483.699 935.426 483.712 935.464 483.725C935.54 483.751 935.618 483.778 935.697 483.804C935.856 483.858 936.021 483.913 936.192 483.968C936.534 484.079 936.904 484.195 937.301 484.313C938.087 484.546 939.012 484.797 940.05 485.036C942.038 485.493 944.901 486.013 948.279 486.133C954.92 486.369 967.075 484.979 974.899 474.766L915.642 431.873ZM956.864 427.584L911.004 400.843L881.784 453.394L927.643 480.135L956.864 427.584ZM839.91 514.717L888.371 538.694L912.24 483.262L863.78 459.286L839.91 514.717ZM900.306 510.978C882.797 535.41 882.78 535.399 882.763 535.387C882.757 535.383 882.74 535.371 882.729 535.364C882.707 535.348 882.684 535.332 882.662 535.316C882.616 535.285 882.571 535.253 882.525 535.221C882.434 535.157 882.342 535.092 882.248 535.025C882.062 534.892 881.872 534.754 881.678 534.61C881.29 534.324 880.882 534.013 880.459 533.676C879.622 533.01 878.666 532.197 877.652 531.232C875.74 529.409 872.986 526.435 870.633 522.307C868.147 517.945 866.13 512.287 866.259 506.033C866.388 499.786 868.615 495.008 871.103 491.76L930.359 534.656C933.332 530.776 935.748 525.402 935.888 518.619C936.029 511.828 933.844 505.691 931.131 500.93C928.551 496.402 925.508 493.108 923.365 491.065C922.236 489.99 921.178 489.092 920.269 488.368C919.809 488.002 919.372 487.669 918.964 487.368C918.76 487.217 918.562 487.073 918.371 486.937C918.275 486.868 918.181 486.801 918.088 486.736C918.042 486.704 917.996 486.672 917.95 486.64C917.927 486.624 917.905 486.608 917.882 486.593C917.871 486.585 917.854 486.573 917.848 486.569C917.831 486.557 917.815 486.546 900.306 510.978ZM871.103 491.76C877.955 482.817 888.61 481.664 894.135 481.883C896.923 481.993 899.247 482.432 900.843 482.81C901.686 483.009 902.453 483.222 903.132 483.429C903.474 483.533 903.804 483.638 904.118 483.743C904.276 483.796 904.431 483.848 904.583 483.901C904.659 483.927 904.735 483.954 904.81 483.98C904.847 483.993 904.885 484.007 904.922 484.02C904.94 484.026 904.959 484.033 904.977 484.04C904.987 484.043 905.001 484.048 905.005 484.05C905.019 484.055 905.033 484.059 897.719 513.741C890.405 543.422 890.419 543.427 890.433 543.432C890.438 543.434 890.452 543.439 890.461 543.442C890.48 543.449 890.498 543.455 890.517 543.462C890.555 543.475 890.593 543.489 890.631 543.502C890.708 543.529 890.787 543.557 890.867 543.585C891.027 543.64 891.193 543.697 891.366 543.754C891.711 543.869 892.086 543.989 892.486 544.111C893.281 544.352 894.214 544.613 895.264 544.861C897.274 545.337 900.169 545.88 903.588 546.015C910.377 546.284 922.538 544.864 930.359 534.656L871.103 491.76ZM912.323 487.461L866.449 460.722L837.241 513.281L883.115 540.02L912.323 487.461ZM970.44 447.321L914.756 419.595L890.686 474.927L946.37 502.653L970.44 447.321ZM804.895 432.211L890.686 474.927L914.755 419.595L828.965 376.879L804.895 432.211ZM981.101 452.629L970.44 447.321L946.37 502.653L957.032 507.961L981.101 452.629ZM885.402 522.924L914.245 539.687L943.354 487.07L914.511 470.308L885.402 522.924ZM951.965 492.075L943.354 487.071L914.244 539.686L922.855 544.691L951.965 492.075ZM914.511 470.308L807.188 407.934L778.078 460.55L885.402 522.924L914.511 470.308Z" fill="#475569" mask="url(#path-4-inside-1_1130_3)"/>
</svg>
